# xmcd
#
# Track frame offsets: 
#        150
#        25473
#        46123
#        63015
#        85805
#        112798
#        135173
#        169053
#        192805
#        215698
#        240498
#
# Disc length: 3504 seconds
#
# Revision: 4
# Processed by: cddbd v1.5.1PL0 Copyright (c) Steve Scherf et al.
# Submitted via: ExactAudioCopy v0.95a5
#
DISCID=820dae0b
DTITLE=Stephane Grappelli - Parisian Thoroughfare
DYEAR=1973
DGENRE=Jazz
TTITLE0=Love For Sale
TTITLE1=Perugia
TTITLE2=Two Cute
TTITLE3=Fascinating Rhythm
TTITLE4=Shangri-La
TTITLE5=Nice Work If You Can Get It
TTITLE6=Star Eyes
TTITLE7=Parisian Thoroughfare
TTITLE8=Improvisation On Prelude In E Minor
TTITLE9=Wave
TTITLE10=Hallelujah
EXTD=YEAR: 1990
EXTT0=
EXTT1=
EXTT2=
EXTT3=
EXTT4=
EXTT5=
EXTT6=
EXTT7=
EXTT8=
EXTT9=
EXTT10=
PLAYORDER=
